<svg width="39" height="38" viewBox="0 0 39 38" fill="none" xmlns="http://www.w3.org/2000/svg">
<path d="M5.76314 5.61543C2.19879 9.08842 0 13.8694 0 19.1692C0 22.597 0.948954 25.9122 2.66169 28.7762C4.11984 31.2344 6.15661 33.3769 8.60999 35.0231C9.00343 33.3543 9.51269 31.7531 10.1607 30.197C8.84147 29.1146 7.75365 27.829 6.89726 26.4083C5.62427 24.2659 4.90677 21.7626 4.90677 19.1917C4.90677 15.2226 6.55008 11.6142 9.23491 9.02075C11.8966 6.38219 15.5998 4.78101 19.6734 4.78101C22.1731 4.78101 24.5802 5.38991 26.7095 6.51751C28.3297 7.37451 29.7647 8.50205 30.9682 9.87777C32.5652 9.26886 34.2317 8.7727 35.9213 8.36676C34.1159 5.79585 31.7551 3.74362 29.0472 2.32285C26.2235 0.811871 23.0063 0 19.6734 0C14.2342 0 9.3275 2.14243 5.76314 5.61543Z" fill="#EEEDEA"/>
<path d="M21.2698 20.6801C16.8491 24.9876 13.7013 30.5128 12.382 36.692C13.8865 37.2783 15.4603 37.7069 17.1268 37.9098C18.2146 32.5425 20.9225 27.7614 24.7415 24.0404C28.5373 20.3419 33.4441 17.7033 38.9063 16.6208C38.6749 14.9971 38.2583 13.4635 37.6334 11.9976C31.3148 13.3282 25.6673 16.3953 21.2698 20.6801Z" fill="#EEEDEA"/>
<path d="M30.39 24.4012C26.409 27.2202 23.3307 31.2119 21.7106 35.9929C21.4791 36.6469 21.2939 37.3234 21.132 38C23.0298 37.8646 24.8583 37.4588 26.5942 36.8047C27.9135 33.2867 30.2743 30.3549 33.26 28.235C34.6487 27.2427 36.1763 26.4534 37.7964 25.8671C38.4445 24.1982 38.8611 22.4166 39 20.5448C35.8754 21.289 32.9591 22.597 30.39 24.4012Z" fill="#EEEDEA"/>
</svg>
